name Walk7.mot
datacolumns 19
datarows 27
range 1.25600000 1.28200000
endheader

                time	   L_ground_force_vx	   L_ground_force_vy	   L_ground_force_vz	   L_ground_force_px	   L_ground_force_py	   L_ground_force_pz	   R_ground_force_vx	   R_ground_force_vy	   R_ground_force_vz	   R_ground_force_px	   R_ground_force_py	   R_ground_force_pz	   L_ground_torque_x	   L_ground_torque_y	   L_ground_torque_z	   R_ground_torque_x	   R_ground_torque_y	   R_ground_torque_z	
          1.25600000	          0.00000000	          0.00000000	          0.00000000	          0.00000000	          0.00000000	          0.00000000	          0.00000000	          0.00000000	          0.00000000	          0.00000000	          0.00000000	          0.00000000	          0.00000000	          0.00000000	          0.00000000	          0.00000000	          0.00000000	          0.00000000	
          1.25700000	          0.00000000	          0.00000000	          0.00000000	          0.00000000	          0.00000000	          0.00000000	          0.00000000	          0.00000000	          0.00000000	          0.00000000	          0.00000000	          0.00000000	          0.00000000	          0.00000000	          0.00000000	          0.00000000	          0.00000000	          0.00000000	
          1.25800000	          0.00000000	          0.00000000	          0.00000000	          0.00000000	          0.00000000	          0.00000000	         -2.57411948	         11.07798592	          0.41289517	         -0.45480139	          0.00000000	         -0.02607675	          0.00000000	          0.00000000	          0.00000000	          0.00000000	         -0.04524999	          0.00000000	
          1.25900000	          0.00000000	          0.00000000	          0.00000000	          0.00000000	          0.00000000	          0.00000000	         -4.48373980	         22.29568206	          0.62280680	         -0.45435913	          0.00000000	         -0.02538534	          0.00000000	          0.00000000	          0.00000000	          0.00000000	         -0.04345085	          0.00000000	
          1.26000000	          0.00000000	          0.00000000	          0.00000000	          0.00000000	          0.00000000	          0.00000000	         -6.75217605	         38.32431072	          0.77407772	         -0.45383548	          0.00000000	         -0.02508119	          0.00000000	          0.00000000	          0.00000000	          0.00000000	         -0.01614484	          0.00000000	
          1.26100000	          0.00000000	          0.00000000	          0.00000000	          0.00000000	          0.00000000	          0.00000000	         -9.23424538	         59.95499828	          0.78749182	         -0.45333651	          0.00000000	         -0.02502870	          0.00000000	          0.00000000	          0.00000000	          0.00000000	          0.03676362	          0.00000000	
          1.26200000	          0.00000000	          0.00000000	          0.00000000	          0.00000000	          0.00000000	          0.00000000	        -11.72636989	         87.70701984	          0.57195362	         -0.45285740	          0.00000000	         -0.02508435	          0.00000000	          0.00000000	          0.00000000	          0.00000000	          0.10748584	          0.00000000	
          1.26300000	          0.00000000	          0.00000000	          0.00000000	          0.00000000	          0.00000000	          0.00000000	        -13.95723083	        121.24745334	          0.02665082	         -0.45232301	          0.00000000	         -0.02512969	          0.00000000	          0.00000000	          0.00000000	          0.00000000	          0.18599897	          0.00000000	
          1.26400000	          0.00000000	          0.00000000	          0.00000000	          0.00000000	          0.00000000	          0.00000000	        -15.64229980	        158.81022883	         -0.94523295	         -0.45170379	          0.00000000	         -0.02511212	          0.00000000	          0.00000000	          0.00000000	          0.00000000	          0.26008928	          0.00000000	
          1.26500000	          0.00000000	          0.00000000	          0.00000000	          0.00000000	          0.00000000	          0.00000000	        -16.58651891	        197.21961809	         -2.40626258	         -0.45107348	          0.00000000	         -0.02501511	          0.00000000	          0.00000000	          0.00000000	          0.00000000	          0.31460413	          0.00000000	
          1.26600000	          0.00000000	          0.00000000	          0.00000000	          0.00000000	          0.00000000	          0.00000000	        -16.76065122	        232.65065582	         -4.34866334	         -0.45053024	          0.00000000	         -0.02485726	          0.00000000	          0.00000000	          0.00000000	          0.00000000	          0.33887752	          0.00000000	
          1.26700000	          0.00000000	          0.00000000	          0.00000000	          0.00000000	          0.00000000	          0.00000000	        -16.31550021	        261.70970489	         -6.67280477	         -0.45010453	          0.00000000	         -0.02467373	          0.00000000	          0.00000000	          0.00000000	          0.00000000	          0.33474459	          0.00000000	
          1.26800000	          0.00000000	          0.00000000	          0.00000000	          0.00000000	          0.00000000	          0.00000000	        -15.52974052	        282.25279504	         -9.20101738	         -0.44975952	          0.00000000	         -0.02448512	          0.00000000	          0.00000000	          0.00000000	          0.00000000	          0.31388110	          0.00000000	
          1.26900000	          0.00000000	          0.00000000	          0.00000000	          0.00000000	          0.00000000	          0.00000000	        -14.71333922	        293.69073680	        -11.72336004	         -0.44944506	          0.00000000	         -0.02430876	          0.00000000	          0.00000000	          0.00000000	          0.00000000	          0.29017093	          0.00000000	
          1.27000000	          0.00000000	          0.00000000	          0.00000000	          0.00000000	          0.00000000	          0.00000000	        -14.11660677	        296.84899649	        -14.04567533	         -0.44912993	          0.00000000	         -0.02416977	          0.00000000	          0.00000000	          0.00000000	          0.00000000	          0.27436629	          0.00000000	
          1.27100000	          0.00000000	          0.00000000	          0.00000000	          0.00000000	          0.00000000	          0.00000000	        -13.88255400	        293.54217290	        -16.02428116	         -0.44880214	          0.00000000	         -0.02409178	          0.00000000	          0.00000000	          0.00000000	          0.00000000	          0.26907953	          0.00000000	
          1.27200000	          0.00000000	          0.00000000	          0.00000000	          0.00000000	          0.00000000	          0.00000000	        -14.04567937	        286.03214385	        -17.58708587	         -0.44844890	          0.00000000	         -0.02409230	          0.00000000	          0.00000000	          0.00000000	          0.00000000	          0.26828880	          0.00000000	
          1.27300000	          0.00000000	          0.00000000	          0.00000000	          0.00000000	          0.00000000	          0.00000000	        -14.56113823	        276.52552679	        -18.73231181	         -0.44804800	          0.00000000	         -0.02416186	          0.00000000	          0.00000000	          0.00000000	          0.00000000	          0.26464830	          0.00000000	
          1.27400000	          0.00000000	          0.00000000	          0.00000000	          0.00000000	          0.00000000	          0.00000000	        -15.34158389	        266.83952126	        -19.50823565	         -0.44759978	          0.00000000	         -0.02423785	          0.00000000	          0.00000000	          0.00000000	          0.00000000	          0.25626007	          0.00000000	
          1.27500000	          0.00000000	          0.00000000	          0.00000000	          0.00000000	          0.00000000	          0.00000000	        -16.29183332	        258.28340956	        -19.98680973	         -0.44713511	          0.00000000	         -0.02425215	          0.00000000	          0.00000000	          0.00000000	          0.00000000	          0.24579154	          0.00000000	
          1.27600000	          0.00000000	          0.00000000	          0.00000000	          0.00000000	          0.00000000	          0.00000000	        -17.33783819	        251.67748814	        -20.23618951	         -0.44668350	          0.00000000	         -0.02421998	          0.00000000	          0.00000000	          0.00000000	          0.00000000	          0.23655713	          0.00000000	
          1.27700000	          0.00000000	          0.00000000	          0.00000000	          0.00000000	          0.00000000	          0.00000000	        -18.43744552	        247.43981534	        -20.30970766	         -0.44626949	          0.00000000	         -0.02420964	          0.00000000	          0.00000000	          0.00000000	          0.00000000	          0.23279329	          0.00000000	
          1.27800000	          0.00000000	          0.00000000	          0.00000000	          0.00000000	          0.00000000	          0.00000000	        -19.57463133	        245.71133169	        -20.25773934	         -0.44589511	          0.00000000	         -0.02425238	          0.00000000	          0.00000000	          0.00000000	          0.00000000	          0.23952099	          0.00000000	
          1.27900000	          0.00000000	          0.00000000	          0.00000000	          0.00000000	          0.00000000	          0.00000000	        -20.74923024	        246.42064360	        -20.13227139	         -0.44550078	          0.00000000	         -0.02438010	          0.00000000	          0.00000000	          0.00000000	          0.00000000	          0.25759177	          0.00000000	
          1.28000000	          0.00000000	          0.00000000	          0.00000000	          0.00000000	          0.00000000	          0.00000000	        -21.96407943	        249.25790089	        -19.97219714	         -0.44501099	          0.00000000	         -0.02466078	          0.00000000	          0.00000000	          0.00000000	          0.00000000	          0.28308231	          0.00000000	
          1.28100000	          0.00000000	          0.00000000	          0.00000000	          0.00000000	          0.00000000	          0.00000000	        -23.21708664	        253.69379924	        -19.79106706	         -0.44442927	          0.00000000	         -0.02509719	          0.00000000	          0.00000000	          0.00000000	          0.00000000	          0.31421740	          0.00000000	
          1.28200000	          0.00000000	          0.00000000	          0.00000000	          0.00000000	          0.00000000	          0.00000000	        -24.50884858	        259.10975103	        -19.57811122	         -0.44385331	          0.00000000	         -0.02556556	          0.00000000	          0.00000000	          0.00000000	          0.00000000	          0.35421611	          0.00000000	
